<?xml version="1.0"?>
<svg height="512" style="enable-background:new 0 0 512 512" version="1.1" viewBox="0 0 24 24" width="512" x="0"
     xml:space="preserve"
     xmlns="http://www.w3.org/2000/svg" y="0"><g><path d="M12,12A6,6,0,1,0,6,6,6.006,6.006,0,0,0,12,12ZM12,2A4,4,0,1,1,8,6,4,4,0,0,1,12,2Z" data-original="#000000" fill="#00aff0" xmlns="http://www.w3.org/2000/svg"/><path
  d="M12,14a9.01,9.01,0,0,0-9,9,1,1,0,0,0,2,0,7,7,0,0,1,14,0,1,1,0,0,0,2,0A9.01,9.01,0,0,0,12,14Z"
  data-original="#000000" fill="#00aff0"
  xmlns="http://www.w3.org/2000/svg"/></g></svg>
